<svg class="img-fluid" id="outputsvg" xmlns="http://www.w3.org/2000/svg" style="transform: matrix(1, 0, 0, 1, 0, 0); transform-origin: 50% 50%; cursor: move; transition: transform 200ms ease-in-out;" width="80" height="80" viewBox="0 0 5020 4970"><g id="l5HVU50e2JLFDRfdPotGU0k" fill="rgb(223,67,45)" style="transform: none;"><g style="transform: none;"><path id="p1ELembMT9" d="M2804 2468 c24 -59 67 -152 96 -213 16 -33 59 -127 95 -210 37 -82 70 -154 74 -160 4 -5 14 -26 21 -45 7 -19 33 -76 57 -127 24 -50 43 -94 43 -98 0 -3 18 -42 39 -88 68 -143 111 -238 111 -244 0 -3 18 -44 41 -91 22 -48 58 -125 79 -172 86 -190 100 -218 145 -278 39 -51 157 -152 178 -152 4 0 34 -13 69 -30 38 -17 94 -33 141 -40 101 -13 607 -14 607 0 0 15 -65 157 -181 398 -44 90 -79 167 -79 170 0 4 -19 45 -41 92 -23 47 -54 112 -69 145 -55 118 -99 213 -203 435 -58 124 -119 255 -135 290 -32 70 -46 86 -107 121 -123 69 -184 85 -397 99 -180 12 -301 44 -404 107 -41 26 -89 64 -107 85 -23 27 -39 38 -59 38 -28 0 -28 0 -14 -32z"></path></g></g><g id="l4xDfe8oL6uXVVGtMGEJYaq" fill="rgb(242,174,0)" style="transform: none;"><g style="transform: none;"><path id="p2aq31MVJ" d="M2455 3963 c-94 -20 -204 -68 -256 -110 -110 -90 -154 -150 -234 -323 -31 -69 -74 -161 -95 -205 -20 -44 -50 -107 -65 -140 -15 -33 -53 -114 -85 -180 -31 -66 -65 -138 -75 -160 -9 -22 -30 -67 -46 -100 -22 -46 -29 -75 -29 -120 0 -163 37 -251 174 -420 44 -55 84 -104 88 -110 4 -5 18 -23 31 -40 13 -16 42 -69 65 -116 39 -79 43 -95 49 -188 3 -55 9 -101 14 -101 7 0 79 140 79 154 0 7 135 306 195 431 18 39 56 124 85 190 48 111 91 208 160 360 15 33 32 77 39 97 15 46 39 68 52 47 7 -11 13 -10 29 11 11 14 24 41 31 60 6 19 26 67 45 106 19 40 34 75 34 79 0 4 17 41 39 83 21 43 41 88 45 102 4 14 22 57 40 95 19 39 61 129 95 201 33 71 61 137 61 145 0 32 -164 117 -280 145 -51 13 -239 17 -285 7z"></path></g></g><g id="l2feUn4CvJzJHazYGCTb5QE" fill="rgb(34,99,201)" style="transform: none;"><g style="transform: none;"><path id="paXSTULaW" d="M1572 2688 c-77 -163 -75 -156 -68 -246 4 -46 14 -120 22 -165 22 -125 29 -300 15 -398 -60 -405 -211 -753 -448 -1030 -120 -139 -220 -215 -359 -270 -60 -25 -84 -39 -84 -51 0 -17 16 -18 203 -18 210 0 370 12 422 31 114 42 218 111 280 187 25 30 45 59 45 65 0 6 7 18 15 27 8 8 49 90 91 180 42 91 91 197 110 237 19 40 34 75 34 77 0 8 68 154 113 244 l42 82 0 118 -1 118 -44 90 c-24 49 -54 103 -67 119 -13 17 -27 35 -31 40 -4 6 -44 55 -88 110 -143 177 -183 281 -171 448 2 37 3 67 1 67 -2 0 -16 -28 -32 -62z"></path></g></g><g id="l3Bm8DdpjLtmeegN7mTp1aB" fill="rgb(54,119,219)" style="transform: none;"><g style="transform: none;"><path id="poaqI9xrN" d="M1485 2498 c-21 -46 -55 -119 -76 -163 -20 -44 -54 -116 -74 -160 -21 -44 -58 -123 -82 -175 -66 -138 -116 -246 -153 -325 -74 -161 -291 -626 -347 -745 -25 -52 -72 -153 -105 -225 -33 -72 -66 -143 -73 -160 l-14 -30 54 -3 c45 -2 71 4 149 37 148 61 237 129 359 271 237 275 388 625 448 1029 15 105 7 341 -17 466 -9 50 -17 129 -18 177 0 49 -4 88 -7 88 -3 0 -23 -37 -44 -82z"></path></g></g><g id="l5XafiDD6R0eREReSII7tBR" fill="rgb(30,138,76)" style="transform: none;"><g style="transform: none;"><path id="pnaPgj0Rt" d="M2931 3704 c-34 -70 -61 -130 -61 -135 0 -5 -13 -32 -28 -61 -16 -29 -35 -71 -42 -93 -7 -22 -30 -74 -52 -117 -21 -42 -38 -80 -38 -85 0 -4 -16 -39 -35 -77 -19 -37 -35 -74 -35 -81 0 -6 -11 -33 -24 -58 l-25 -46 46 -113 c26 -62 55 -125 65 -140 10 -14 18 -31 18 -38 0 -7 18 -49 39 -94 98 -206 281 -305 599 -326 253 -17 354 -51 490 -167 52 -45 60 -48 42 -15 -5 9 -18 38 -29 63 -25 57 -79 106 -236 213 -133 90 -293 241 -366 346 -196 278 -303 650 -269 928 20 161 23 222 12 222 -6 0 -37 -57 -71 -126z"></path></g></g><g id="l6j2nW9f7J1rpsBxXuaWchk" fill="rgb(57,168,96)" style="transform: none;"><g style="transform: none;"><path id="p1DYlcT2rA" d="M2990 3838 c-1 -2 -7 -39 -15 -83 -23 -119 -29 -296 -16 -405 30 -241 130 -501 270 -700 74 -106 233 -256 367 -347 113 -76 219 -162 237 -190 8 -14 41 -18 35 -5 -2 4 -18 39 -37 77 -104 215 -156 326 -243 515 -51 111 -74 161 -132 282 -31 64 -56 119 -56 122 0 3 -19 45 -41 93 -66 138 -103 219 -160 343 -55 123 -92 183 -150 247 -34 37 -59 59 -59 51z"></path></g></g></svg>